:SAMPLES-PER-SECOND 30
:FULLY-SPECIFIED
:DEGREES
365
root  116.274 27.2859 -16.5462 10.247 13.3632 25.8762
RightUpLeg  -25.0106 -4.32208 -4.54264
RightLeg  92.0522 0.603239 16.6215
RightFoot  -5.39665 -0.136773 -2.52424
RightToes  -45.6818 -0.265387 -0.344917
Spine  15.5298 -9.3091 -13.8466
Spine1  30.1843 -16.921 -19.6543
HEad  20.9492 -19.2972 27.0942
LeftShoulder1  0 -2.42657e-020 -4.95415e-022
LeftArm  -64.6527 -60.7472 -28.6531
LeftForeArm  36.1076 -29.2726 -5.65941
LeftHand  1.58892 -12.9938 -14.2625
RightShoulder  0 2.42657e-020 1.07489e-018
RightArm  10.5174 13.9508 108.537
RightForeArm  37.4889 32.7182 6.49498
RightHand  0.645387 20.0827 4.01487
LeftUpLeg  -52.859 -53.2301 24.297
LeftLeg  40.9572 -21.3772 -15.5107
LeftFoot  6.29192 0.172792 -3.14304
LeftToes  -152.923 1.71452e-006 7.46813e-008
366
root  116.796 26.6216 -15.1933 8.09127 6.41992 21.8336
RightUpLeg  -34.8483 -5.64721 -2.51722
RightLeg  99.0257 -1.01958 12.1475
RightFoot  -12.412 -0.457951 -3.83221
RightToes  -43.9574 -0.250843 -0.336368
Spine  17.5081 -9.98957 -12.5334
Spine1  33.0378 -19.9943 -16.9731
HEad  17.5383 -11.3139 26.282
LeftShoulder1  0 -2.42657e-020 -4.95415e-022
LeftArm  -88.5254 -64.8893 -11.455
LeftForeArm  47.0161 -21.1618 -3.8868
LeftHand  1.8296 -15.2268 -14.0005
RightShoulder  0 2.42657e-020 1.07489e-018
RightArm  13.6792 17.9035 109.541
RightForeArm  37.5859 34.5434 6.96403
RightHand  -0.0215651 22.5326 0.26183
LeftUpLeg  -35.6716 -28.8349 3.18742
LeftLeg  48.2406 4.83127 4.73398
LeftFoot  -12.538 -0.124353 -1.13197
LeftToes  -123.665 1.71452e-006 7.46813e-008
367
root  116.138 25.9304 -13.9739 8.71371 0.0227661 12.2107
RightUpLeg  -46.9848 -5.8377 10.0418
RightLeg  99.8031 0.0967322 0.357406
RightFoot  -20.0532 -0.370694 -1.71891
RightToes  -26.5538 -0.120925 -0.227315
Spine  17.5537 -9.99472 -8.69124
Spine1  30.9953 -22.9029 -10.5338
HEad  17.0487 -4.91336 24.6053
LeftShoulder1  0 -2.42657e-020 -4.95415e-022
LeftArm  -100.958 -64.0183 -0.680099
LeftForeArm  60.8393 -12.6723 -2.22336
LeftHand  1.40815 -14.4377 -11.4585
RightShoulder  0 2.42657e-020 1.07489e-018
RightArm  13.0437 17.9959 110.336
RightForeArm  40.25 35.4519 7.20237
RightHand  -0.829847 26.9179 -3.09719
LeftUpLeg  -32.0916 2.98744 4.65625
LeftLeg  60.9646 0.739021 1.13929
LeftFoot  -29.8425 -0.255435 -0.958555
LeftToes  -42.4135 1.71452e-006 7.46813e-008
368
root  117.538 26.4483 -12.532 9.77234 -3.69629 20.3943
RightUpLeg  -60.7273 -14.1516 -0.159514
RightLeg  100.845 0.122038 0.125107
RightFoot  -23.587 -0.200855 -0.584433
RightToes  -20.7662 -0.085771 -0.182954
Spine  17.943 -12.2475 -10.4481
Spine1  33.1991 -25.3254 -16.4488
HEad  15.8458 1.12036 20.8921
LeftShoulder1  0 -2.42657e-020 -4.95415e-022
LeftArm  -109.684 -60.1349 9.4864
LeftForeArm  62.2991 -8.51041 -1.46369
LeftHand  1.75175 -12.5012 -16.271
RightShoulder  0 2.42657e-020 1.07489e-018
RightArm  14.2269 18.4446 110.939
RightForeArm  40.4727 37.4013 7.73997
RightHand  -1.15786 26.1126 -4.62093
LeftUpLeg  -34.7305 -29.2288 0.517969
LeftLeg  52.8074 20.3147 21.8513
LeftFoot  -9.38925 -0.39134 -4.76271
LeftToes  -110.004 1.71452e-006 7.46813e-008
369
root  116.199 26.3765 -10.9346 11.1813 -10.344 10.3844
RightUpLeg  -67.1744 -9.84964 12.7649
RightLeg  91.5216 -0.109753 -5.93129
RightFoot  -23.6177 0.186246 1.26839
RightToes  -19.2418 -0.0772723 -0.170698
Spine  17.3867 -10.5347 -6.64823
Spine1  30.3387 -25.2926 -8.42884
HEad  15.125 3.84297 20.2189
LeftShoulder1  0 -2.42657e-020 -4.95415e-022
LeftArm  -97.2664 -59.8062 5.27741
LeftForeArm  70.8189 -2.83945 -0.438832
LeftHand  2.2158 -12.2435 -20.8238
RightShoulder  0 2.42657e-020 1.07489e-018
RightArm  10.8125 18.1752 107.977
RightForeArm  41.24 38.3189 8.00223
RightHand  -1.23609 26.632 -4.85019
LeftUpLeg  -23.1397 -3.20679 6.41713
LeftLeg  52.143 7.1065 7.94166
LeftFoot  -29.6141 -1.36495 -5.16031
LeftToes  -68.5877 1.71452e-006 7.46813e-008
370
root  115.856 27.0166 -8.9575 11.897 -14.0747 10.5391
RightUpLeg  -73.142 -11.9968 13.076
RightLeg  83.192 -1.32257 -7.62043
RightFoot  -24.6495 0.449104 2.43292
RightToes  -17.2337 -0.0665803 -0.154216
Spine  16.5129 -10.3414 -5.54847
Spine1  28.9115 -25.5872 -6.74259
HEad  15.1789 6.26379 17.1279
LeftShoulder1  0 -2.42657e-020 -4.95415e-022
LeftArm  -76.9675 -58.8095 -7.54705
LeftForeArm  73.3673 -2.23184 -0.325559
LeftHand  1.89546 -12.2221 -17.9465
RightShoulder  0 2.42657e-020 1.07489e-018
RightArm  7.07175 17.2542 104.456
RightForeArm  42.4053 38.4003 8.02429
RightHand  -1.38728 26.8296 -5.44302
LeftUpLeg  -14.9374 -9.9744 6.0604
LeftLeg  42.648 9.93432 7.93777
LeftFoot  -25.9715 -1.19565 -5.1815
LeftToes  -80.9205 1.71452e-006 7.46813e-008
371
root  115.214 27.681 -6.91538 11.7101 -12.22 9.59688
RightUpLeg  -76.2321 -18.8163 14.9952
RightLeg  74.6701 -2.47541 -7.37546
RightFoot  -25.7376 0.536153 2.72415
RightToes  -11.5242 -0.0394134 -0.105434
Spine  16.9465 -11.8253 -3.3756
Spine1  29.3114 -29.7324 -3.44978
HEad  16.768 8.99767 13.654
LeftShoulder1  0 -2.42657e-020 -4.95415e-022
LeftArm  -68.8157 -55.5204 -19.031
LeftForeArm  71.519 -2.02409 -0.294069
LeftHand  1.29525 -11.7276 -12.9392
RightShoulder  0 2.42657e-020 1.07489e-018
RightArm  2.03571 17.2121 101.076
RightForeArm  41.9585 37.5822 7.78934
RightHand  -1.28221 26.5187 -5.06868
LeftUpLeg  -7.29604 -12.2541 6.05156
LeftLeg  35.7685 10.0304 6.22754
LeftFoot  -20.5606 -0.720317 -3.96989
LeftToes  -73.3639 1.71452e-006 7.46813e-008
372
root  114.383 28.3868 -4.55737 11.5384 -10.1257 9.96211
RightUpLeg  -77.3384 -24.8522 14.7103
RightLeg  68.7181 -2.35791 -5.20198
RightFoot  -24.7913 0.30649 1.77203
RightToes  -14.8384 -0.0545921 -0.134082
Spine  16.7566 -13.3465 -1.77225
Spine1  28.9651 -33.1166 -1.60168
HEad  17.4811 11.8788 10.5219
LeftShoulder1  0 -2.42657e-020 -4.95415e-022
LeftArm  -65.3774 -51.6094 -27.2034
LeftForeArm  63.407 -1.81141 -0.276818
LeftHand  1.28867 -10.8342 -13.9056
RightShoulder  0 2.42657e-020 1.07489e-018
RightArm  -2.88342 16.4105 97.0028
RightForeArm  35.6657 37.3863 7.74113
RightHand  -1.0304 25.823 -4.1236
LeftUpLeg  -2.13079 -10.2022 6.24629
LeftLeg  32.3668 6.44919 3.51274
LeftFoot  -11.1051 -0.196389 -2.01996
LeftToes  -70.1001 1.71452e-006 7.46813e-008
373
root  113.016 29.0448 -2.04433 12.1671 -11.2124 9.83035
RightUpLeg  -74.3139 -25.3121 13.2145
RightLeg  65.3726 -3.44988 -6.49368
RightFoot  -25.2959 0.519801 2.69367
RightToes  -11.2962 -0.0384305 -0.103432
Spine  15.7454 -13.5225 -0.470332
Spine1  26.5069 -33.5189 0.871732
HEad  16.5761 14.0894 6.89116
LeftShoulder1  0 -2.42657e-020 -4.95415e-022
LeftArm  -61.5792 -47.811 -34.3055
LeftForeArm  61.3459 -1.84699 -0.287696
LeftHand  1.0318 -9.49065 -12.7607
RightShoulder  0 2.42657e-020 1.07489e-018
RightArm  -7.36621 14.7966 91.4788
RightForeArm  31.6991 38.1309 7.95734
RightHand  -0.918053 24.811 -3.80281
LeftUpLeg  1.04433 -6.65047 7.8679
LeftLeg  32.2039 1.66375 0.899931
LeftFoot  0.905399 0.0111407 -1.40993
LeftToes  -64.626 1.71452e-006 7.46813e-008
374
root  111.398 29.4058 0.65821 13.9917 -16.628 8.11533
RightUpLeg  -66.7208 -19.9609 12.2526
RightLeg  61.8686 -4.74463 -7.68777
RightFoot  -24.5158 0.664801 3.43682
RightToes  -10.2102 -0.033858 -0.0938401
Spine  13.721 -11.9419 0.309294
Spine1  22.0703 -29.8645 3.30086
HEad  16.7415 16.1103 3.98821
LeftShoulder1  0 -2.42657e-020 -4.95415e-022
LeftArm  -49.9332 -43.379 -40.9873
LeftForeArm  57.8035 -3.97058 -0.667941
LeftHand  0.677589 -7.64422 -10.4956
RightShoulder  0 2.42657e-020 1.07489e-018
RightArm  -12.3215 11.7721 85.626
RightForeArm  32.4841 37.9488 7.9043
RightHand  -1.07164 24.4796 -4.56811
LeftUpLeg  2.0582 -3.12579 8.35652
LeftLeg  35.5792 3.15824 1.9593
LeftFoot  15.5176 0.127216 -0.933682
LeftToes  -58.8581 1.71452e-006 7.46813e-008
375
root  109.551 29.3795 3.16928 17.1741 -24.8245 5.41293
RightUpLeg  -61.4408 -10.6472 13.0928
RightLeg  60.6119 -4.65223 -7.18643
RightFoot  -26.7016 0.80846 3.78324
RightToes  -5.21919 -0.0152173 -0.0487245
Spine  11.0695 -9.32598 0.696569
Spine1  17.1447 -23.6075 4.91363
HEad  16.1617 18.8728 0.528897
LeftShoulder1  0 -2.42657e-020 -4.95415e-022
LeftArm  -55.8374 -40.3624 -43.7663
LeftForeArm  58.6291 -2.78741 -0.458377
LeftHand  0.413971 -7.63618 -6.57289
RightShoulder  0 2.42657e-020 1.07489e-018
RightArm  -16.0626 8.32712 80.009
RightForeArm  31.984 38.5125 8.06808
RightHand  -1.05903 22.7614 -4.88915
LeftUpLeg  -1.43846 1.80322 8.65826
LeftLeg  46.6775 -3.07912 -2.87377
LeftFoot  25.0813 0.811671 -3.64779
LeftToes  -38.7839 1.71452e-006 7.46813e-008
376
root  108.169 29.2474 5.66002 17.2913 -30.6064 3.95483
RightUpLeg  -56.8442 -8.03854 13.0553
RightLeg  62.6727 -3.35923 -5.66858
RightFoot  -24.4939 0.475722 2.56897
RightToes  -5.49025 -0.0161282 -0.0512151
Spine  11.3444 -7.75415 0.828833
Spine1  17.5407 -19.9967 4.91833
HEad  13.93 22.0564 -2.00445
LeftShoulder1  0 -2.42657e-020 -4.95415e-022
LeftArm  -59.3144 -38.2164 -41.4431
LeftForeArm  49.5133 -5.67147 -0.983368
LeftHand  0.290599 -6.26538 -5.6821
RightShoulder  0 2.42657e-020 1.07489e-018
RightArm  -17.9909 8.71368 74.5753
RightForeArm  29.5082 39.3883 8.32878
RightHand  -1.14029 23.2217 -5.17694
LeftUpLeg  -7.82792 0.0930454 5.27615
LeftLeg  63.9729 -8.37371 -14.3293
LeftFoot  16.4568 0.931746 -6.43664
LeftToes  -40.135 1.71452e-006 7.46813e-008
377
root  106.465 29.0533 8.15977 17.0879 -35.951 2.20598
RightUpLeg  -50.0324 -4.6501 12.9456
RightLeg  63.5093 -2.84096 -4.97999
RightFoot  -28.6486 0.601673 2.73359
RightToes  -0.857696 -0.00219495 -0.00809921
Spine  11.6435 -6.30823 0.81286
Spine1  18.3319 -16.2383 4.03655
HEad  13.9253 25.7094 -2.67837
LeftShoulder1  0 -2.42657e-020 -4.95415e-022
LeftArm  -61.0368 -36.2812 -38.3005
LeftForeArm  43.0078 -8.60572 -1.51564
LeftHand  0.221398 -5.70714 -4.81527
RightShoulder  0 2.42657e-020 1.07489e-018
RightArm  -19.022 10.0002 70.5286
RightForeArm  27.0366 38.1935 7.97769
RightHand  -1.05459 22.5155 -4.92577
LeftUpLeg  -14.6298 0.972667 4.10136
LeftLeg  74.1928 -4.36196 -12.148
LeftFoot  13.4893 0.510751 -4.31675
LeftToes  -52.8539 1.71452e-006 7.46813e-008
378
root  104.773 29.1137 10.5581 16.5733 -38.4643 2.15865
RightUpLeg  -42.956 -3.67491 11.7585
RightLeg  62.1959 -2.58815 -4.31566
RightFoot  -32.4578 0.720764 2.85348
RightToes  -2.34162 -0.00627801 -0.0220312
Spine  11.918 -5.90889 0.366441
Spine1  18.9984 -14.976 3.08264
HEad  13.3067 27.561 -2.66299
LeftShoulder1  0 -2.42657e-020 -4.95415e-022
LeftArm  -62.3858 -35.0615 -33.6954
LeftForeArm  41.8313 -10.619 -1.88068
LeftHand  0.301559 -8.67691 -4.34674
RightShoulder  0 2.42657e-020 1.07489e-018
RightArm  -21.8828 10.665 68.7938
RightForeArm  27.1942 37.1662 7.68438
RightHand  -1.07421 21.4687 -5.29358
LeftUpLeg  -25.0553 0.477526 3.86091
LeftLeg  81.185 -1.37 -6.1879
LeftFoot  9.17809 0.164842 -2.0535
LeftToes  -66.5784 1.71452e-006 7.46813e-008
